<svg xmlns="http://www.w3.org/2000/svg" width="20" height="20" viewBox="0 0 20 20" fill="none">
<path fill-rule="evenodd" clip-rule="evenodd" fill="#D7C7B4" d="M15.5795 12.8251L18.8509 15.3226C19.7431 16.3103 19.7431 17.7917 18.8509 18.7793C17.8596 19.7669 16.3726 19.7669 15.3813 18.7793L12.1099 16.2818C10.9203 16.8743 9.5325 17.2694 8.14465 17.2694C3.48545 17.2694 0.480042 13.5165 0.480042 8.87469C0.480042 4.23291 3.48545 0.479992 8.14465 0.479992C12.8039 0.479992 16.5709 4.23291 16.5709 8.87469C16.5709 10.2573 16.1743 11.64 15.5795 12.8251ZM2.46269 8.87469C2.46269 12.4301 4.57591 15.2942 8.14466 15.2942C11.7134 15.2942 14.5882 12.4301 14.5882 8.87469C14.5882 5.31929 11.7134 3.97842 8.14466 3.97842C4.57591 3.97842 2.46269 5.31929 2.46269 8.87469Z"/>
</svg>